# Alias OBJ Model File
# Exported from SketchUp, (c) 2000-2012 Trimble Navigation Limited
# File units = meters

mtllib Laberinto.mtl

g Mesh1 Model

usemtl Translucent_Glass_Gray
v 35.6604 0 -31.6037
vt -1403.95 1244.24
vn 0 -1 -0
v 38.4457 0 -30.853
vt -1513.61 1214.69
v 41.2535 0 -29.2265
vt -1624.15 1150.65
v 43.5447 0 -26.9287
vt -1714.36 1060.19
v 45.163 0 -24.1162
vt -1778.07 949.458
v 45.9983 0 -20.9807
vt -1810.96 826.013
v 45.9936 0 -17.7358
vt -1810.77 698.261
v 45.1493 0 -14.6027
vt -1777.53 574.911
v 43.5228 0 -11.7949
vt -1713.5 464.368
v 41.225 0 -9.50378
vt -1623.03 374.165
v 38.4125 0 -7.88541
vt -1512.3 310.449
v 36.5812 0 -7.39755
vt -1440.21 291.242
v 36.6332 0 -8.73266
vt -1442.25 343.806
v 38.2672 0 -9.22784
vt -1506.58 363.301
v 40.7372 0 -10.7629
vt -1603.83 423.735
v 42.7257 0 -12.8849
vt -1682.12 507.278
v 44.0973 0 -15.4492
vt -1736.11 608.238
v 44.7584 0 -18.2812
vt -1762.14 719.733
v 44.664 0 -21.1878
vt -1758.43 834.166
v 43.8206 0 -23.9709
vt -1725.22 943.738
v 42.2856 0 -26.4409
vt -1664.79 1040.98
v 40.1636 0 -28.4295
vt -1581.24 1119.27
v 37.5992 0 -29.801
vt -1480.28 1173.27
v 35.6604 0 -30.2536
vt -1403.95 1191.09
f 1/1/1 2/2/1 3/3/1 4/4/1 5/5/1 6/6/1 7/7/1 8/8/1 9/9/1 10/10/1 11/11/1 12/12/1 13/13/1 14/14/1 15/15/1 16/16/1 17/17/1 18/18/1 19/19/1 20/20/1 21/21/1 22/22/1 23/23/1 24/24/1 

vt -1145.39 0
vn 0.384018 0 -0.923326
vt -1031.82 0
vn 0.260215 0 -0.965551
v 35.6604 12.74 -31.6037
vt -1031.82 501.575
v 38.4457 12.74 -30.853
vt -1145.39 501.575
f 2/25/2 1/26/3 25/27/3 26/28/2 

vt -1244.24 0
vn -1 0 -0
vt -1191.09 0
v 35.6604 12.74 -30.2536
vt -1191.09 501.575
vt -1244.24 501.575
f 1/29/4 24/30/4 27/31/4 25/32/4 

vt 1096.41 0
vn -0.227336 0 0.973816
vt 1174.8 0
vn -0.3525 0 0.935812
v 37.5992 12.74 -29.801
vt 1174.8 501.575
vt 1096.41 501.575
f 24/33/5 23/34/6 28/35/6 27/36/5 

vt 751.956 0
vt 866.449 0
vn -0.582694 0 0.812691
v 40.1636 12.74 -28.4295
vt 866.449 501.575
vt 751.956 501.575
f 23/37/6 22/38/7 29/39/7 28/40/6 

vt 388.461 0
vt 502.954 0
vn -0.77318 0 0.634187
v 42.2856 12.74 -26.4409
vt 502.954 501.575
vt 388.461 501.575
f 22/41/7 21/42/8 30/43/8 29/44/7 

vt -5.40762 0
vt 109.085 0
vn -0.910974 0 0.412464
v 43.8206 12.74 -23.9709
vt 109.085 501.575
vt -5.40762 501.575
f 21/45/8 20/46/9 31/47/9 30/48/8 

vt -402.809 0
vt -288.316 0
vn -0.986687 0 0.162632
v 44.664 12.74 -21.1878
vt -288.316 501.575
vt -402.809 501.575
f 20/49/9 19/50/10 32/51/10 31/52/9 

vt -776.661 0
vt -662.168 0
vn -0.995159 0 -0.0982826
v 44.7584 12.74 -18.2812
vt -662.168 501.575
vt -776.661 501.575
f 19/53/10 18/54/11 33/55/11 32/56/10 

vt -1101.49 0
vt -986.993 0
vn -0.935812 0 -0.3525
v 44.0973 12.74 -15.4492
vt -986.993 501.575
vt -1101.49 501.575
f 18/57/11 17/58/12 34/59/12 33/60/11 

vt -1355.15 0
vt -1240.66 0
vn -0.812691 0 -0.582694
v 42.7257 12.74 -12.8849
vt -1240.66 501.575
vt -1355.15 501.575
f 17/61/12 16/62/13 35/63/13 34/64/12 

vt -1520.36 0
vt -1405.87 0
vn -0.634187 0 -0.77318
v 40.7372 12.74 -10.7629
vt -1405.87 501.575
vt -1520.36 501.575
f 16/65/13 15/66/14 36/67/14 35/68/13 

vt -1585.86 0
vt -1471.37 0
vn -0.412464 0 -0.910974
v 38.2672 12.74 -9.22784
vt -1471.37 501.575
vt -1585.86 501.575
f 15/69/14 14/70/15 37/71/15 36/72/14 

vt -1547.19 0
vt -1479.98 0
vn -0.290029 0 -0.957018
v 36.6332 12.74 -8.73266
vt -1479.98 501.575
vt -1547.19 501.575
f 14/73/15 13/74/16 38/75/16 37/76/15 

vt -399.712 0
vn -0.999241 0 -0.0389439
vt -347.108 0
v 36.5812 12.74 -7.39755
vt -347.108 501.575
vt -399.712 501.575
f 13/77/17 12/78/17 39/79/17 38/80/17 

vt 1466.64 0
vn 0.257423 0 0.966299
vt 1541.25 0
vn 0.381348 0 0.924432
v 38.4125 12.74 -7.88541
vt 1541.25 501.575
vt 1466.64 501.575
f 12/81/18 11/82/19 40/83/19 39/84/18 

vt 1465.62 0
vt 1593.37 0
vn 0.607614 0 0.794232
v 41.225 12.74 -9.50378
vt 1593.37 501.575
vt 1465.62 501.575
f 11/85/19 10/86/20 41/87/20 40/88/19 

vt 1413.51 0
vt 1541.26 0
vn 0.792473 0 0.609907
v 43.5228 12.74 -11.7949
vt 1541.26 501.575
vt 1413.51 501.575
f 10/89/20 9/90/21 42/91/21 41/92/20 

vt 1260.71 0
vt 1388.46 0
vn 0.923326 0 0.384018
v 45.1493 12.74 -14.6027
vt 1388.46 501.575
vt 1260.71 501.575
f 9/93/21 8/94/22 43/95/22 42/96/21 

vt 1017.65 0
vt 1145.4 0
vn 0.991255 0 0.131959
v 45.9936 12.74 -17.7358
vt 1145.4 501.575
vt 1017.65 501.575
f 8/97/22 7/98/23 44/99/23 43/100/22 

vt 700.878 0
vt 828.629 0
vn 0.991632 0 -0.129093
v 45.9983 12.74 -20.9807
vt 828.629 501.575
vt 700.878 501.575
f 7/101/23 6/102/24 45/103/24 44/104/23 

vt 331.993 0
vt 459.744 0
vn 0.924432 0 -0.381348
v 45.163 12.74 -24.1162
vt 459.744 501.575
vt 331.993 501.575
f 6/105/24 5/106/25 46/107/25 45/108/24 

vt -63.8694 0
vt 63.8818 0
vn 0.794232 0 -0.607614
v 43.5447 12.74 -26.9287
vt 63.8818 501.575
vt -63.8694 501.575
f 5/109/25 4/110/26 47/111/26 46/112/25 

vt -459.732 0
vt -331.981 0
vn 0.609907 0 -0.792473
v 41.2535 12.74 -29.2265
vt -331.981 501.575
vt -459.732 501.575
f 4/113/26 3/114/27 48/115/27 47/116/26 

vt -828.618 0
vt -700.867 0
vt -700.867 501.575
vt -828.618 501.575
f 3/117/27 2/118/2 26/119/2 48/120/27 

vt 1513.61 1214.69
vn 0 1 -0
vt 1403.95 1244.24
vt 1403.95 1191.09
vt 1480.28 1173.27
vt 1581.24 1119.27
vt 1664.79 1040.98
vt 1725.22 943.738
vt 1758.43 834.166
vt 1762.14 719.733
vt 1736.11 608.238
vt 1682.12 507.278
vt 1603.83 423.735
vt 1506.58 363.301
vt 1442.25 343.806
vt 1440.21 291.242
vt 1512.3 310.449
vt 1623.03 374.165
vt 1713.5 464.368
vt 1777.53 574.911
vt 1810.77 698.261
vt 1810.96 826.013
vt 1778.07 949.458
vt 1714.36 1060.19
vt 1624.15 1150.65
f 26/121/28 25/122/28 27/123/28 28/124/28 29/125/28 30/126/28 31/127/28 32/128/28 33/129/28 34/130/28 35/131/28 36/132/28 37/133/28 38/134/28 39/135/28 40/136/28 41/137/28 42/138/28 43/139/28 44/140/28 45/141/28 46/142/28 47/143/28 48/144/28 

g Mesh2 Model

v 40.6509 0 -18.8014
vt -1600.43 740.211
v 40.4122 0 -17.3425
vt -1591.03 682.777
v 39.6563 0 -15.6674
vt -1561.27 616.827
v 38.4925 0 -14.245
vt -1515.45 560.828
v 37.0002 0 -13.1723
vt -1456.7 518.595
v 35.2812 0 -12.5224
vt -1389.02 493.007
v 34.2353 0 -12.4178
vt -1347.84 488.89
v 34.2353 0 -16.7354
vt -1347.84 658.875
v 34.8995 0 -16.9711
vt -1374 668.153
v 35.4802 0 -17.3707
vt -1396.86 683.884
v 35.9376 0 -17.9069
vt -1414.87 704.996
v 36.2407 0 -18.5432
vt -1426.8 730.049
v 36.3687 0 -19.2364
vt -1431.84 757.337
v 36.313 0 -19.939
vt -1429.65 785
v 36.0773 0 -20.6033
vt -1420.37 811.153
v 35.6778 0 -21.1839
vt -1404.64 834.013
v 35.1415 0 -21.6414
vt -1383.53 852.022
v 34.5052 0 -21.9444
vt -1358.47 863.954
v 33.8121 0 -22.0725
vt -1331.18 868.995
v 33.1094 0 -22.0168
vt -1303.52 866.802
v 32.4452 0 -21.7811
vt -1277.37 857.523
v 31.8645 0 -21.3815
vt -1254.51 841.792
v 31.4071 0 -20.8453
vt -1236.5 820.681
v 31.104 0 -20.2089
vt -1224.57 795.627
v 30.976 0 -19.5158
vt -1219.53 768.339
v 31.0317 0 -18.8132
vt -1221.72 740.676
v 31.2673 0 -18.1489
vt -1231 714.524
v 31.6669 0 -17.5683
vt -1246.73 691.664
v 32.2031 0 -17.1108
vt -1267.84 673.654
v 32.8395 0 -16.8077
vt -1292.89 661.722
v 33.1861 0 -16.7437
vt -1306.54 659.202
v 33.1861 0 -9.77996
vt -1306.54 385.038
v 32.916 0 -9.76581
vt -1295.9 384.481
v 30.4544 0 -10.289
vt -1198.99 405.08
v 28.2122 0 -11.4315
vt -1110.72 450.06
v 26.342 0 -13.1154
vt -1037.09 516.355
v 24.9714 0 -15.226
vt -983.126 599.448
v 24.1938 0 -17.6194
vt -952.51 693.676
v 24.1819 0 -17.8456
vt -952.044 702.581
v 25.5046 0 -17.8456
vt -1004.12 702.581
v 25.5269 0 -17.585
vt -1005 692.325
v 26.268 0 -15.5379
vt -1034.17 611.728
v 27.5137 0 -13.7523
vt -1083.22 541.429
v 29.1791 0 -12.35
vt -1148.78 486.219
v 31.1507 0 -11.4264
vt -1226.41 449.86
v 31.8955 0 -11.2938
vt -1255.73 444.637
v 31.8955 0 -15.6709
vt -1255.73 616.963
v 31.8107 0 -15.7007
vt -1252.39 618.137
v 30.9229 0 -16.3077
vt -1217.44 642.037
v 30.2224 0 -17.1239
vt -1189.86 674.17
v 29.757 0 -18.0936
vt -1171.54 712.345
v 29.5585 0 -19.1506
vt -1163.72 753.961
v 29.6403 0 -20.223
vt -1166.94 796.183
v 29.9969 0 -21.2377
vt -1180.98 836.132
v 30.604 0 -22.1256
vt -1204.88 871.086
v 31.4202 0 -22.826
vt -1237.01 898.663
v 32.3898 0 -23.2914
vt -1275.19 916.984
v 32.9779 0 -23.4018
vt -1298.34 921.332
v 32.9779 0 -24.8973
vt -1298.34 980.21
v 32.9779 0 -26.3212
vt -1298.34 1036.27
v 33.8922 0 -26.4127
vt -1334.34 1039.87
v 34.2659 0 -26.3515
vt -1349.05 1037.46
v 34.2659 0 -24.8937
vt -1349.05 980.065
v 34.2659 0 -23.4274
vt -1349.05 922.34
v 34.5193 0 -23.4081
vt -1359.03 921.579
v 35.534 0 -23.0515
vt -1398.98 907.539
v 36.4218 0 -22.4444
vt -1433.93 883.639
v 37.1223 0 -21.6283
vt -1461.51 851.506
v 37.5876 0 -20.6586
vt -1479.83 813.331
v 37.7862 0 -19.6016
vt -1487.64 771.715
v 37.7043 0 -18.5291
vt -1484.42 729.494
v 37.3478 0 -17.5144
vt -1470.38 689.545
v 36.7407 0 -16.6266
vt -1446.48 654.591
v 35.9245 0 -15.9261
vt -1414.35 627.014
v 35.4397 0 -15.6935
vt -1395.26 617.853
v 35.4397 0 -14.1097
vt -1395.26 555.501
v 35.6597 0 -14.162
vt -1403.93 557.559
v 36.9415 0 -14.854
vt -1454.39 584.804
v 38.0005 0 -15.8542
vt -1496.08 624.183
v 38.7645 0 -17.0945
vt -1526.16 673.01
v 39.1816 0 -18.4902
vt -1542.58 727.959
v 39.2231 0 -19.9462
vt -1544.22 785.285
v 38.8864 0 -21.3635
vt -1530.96 841.081
v 38.1944 0 -22.6452
vt -1503.72 891.545
v 37.1942 0 -23.7042
vt -1464.34 933.238
v 35.954 0 -24.4683
vt -1415.51 963.319
v 35.7059 0 -24.5424
vt -1405.74 966.237
v 35.7059 0 -26.116
vt -1405.74 1028.19
v 37.381 0 -25.36
vt -1471.69 998.426
v 38.8034 0 -24.1962
vt -1527.69 952.608
v 39.8761 0 -22.704
vt -1569.93 893.857
v 40.526 0 -20.9849
vt -1595.51 826.178
v 40.6175 0 -20.0706
vt -1599.11 790.18
v 41.9108 0 -20.0825
vt -1650.03 790.651
v 43.206 0 -20.0825
vt -1701.02 790.651
v 43.2731 0 -18.8014
vt -1703.67 740.211
f 49/145/1 50/146/1 51/147/1 52/148/1 53/149/1 54/150/1 55/151/1 56/152/1 57/153/1 58/154/1 59/155/1 60/156/1 61/157/1 62/158/1 63/159/1 64/160/1 65/161/1 66/162/1 67/163/1 68/164/1 69/165/1 70/166/1 71/167/1 72/168/1 73/169/1 74/170/1 75/171/1 76/172/1 77/173/1 78/174/1 79/175/1 80/176/1 81/177/1 82/178/1 83/179/1 84/180/1 85/181/1 86/182/1 87/183/1 88/184/1 89/185/1 90/186/1 91/187/1 92/188/1 93/189/1 94/190/1 95/191/1 96/192/1 97/193/1 98/194/1 99/195/1 100/196/1 101/197/1 102/198/1 103/199/1 104/200/1 105/201/1 106/202/1 107/203/1 108/204/1 109/205/1 110/206/1 111/207/1 112/208/1 113/209/1 114/210/1 115/211/1 116/212/1 117/213/1 118/214/1 119/215/1 120/216/1 121/217/1 122/218/1 123/219/1 124/220/1 125/221/1 126/222/1 127/223/1 128/224/1 129/225/1 130/226/1 131/227/1 132/228/1 133/229/1 134/230/1 135/231/1 136/232/1 137/233/1 138/234/1 139/235/1 140/236/1 141/237/1 142/238/1 143/239/1 144/240/1 

vt 930.654 0
vn 0.957372 0 0.288858
vt 988.851 0
vn 0.986885 0 0.161424
v 40.6509 12.74 -18.8014
vt 988.851 501.575
v 40.4122 12.74 -17.3425
vt 930.654 501.575
f 50/241/29 49/242/30 145/243/30 146/244/29 

vt 1600.43 0
vn 0 0 1
vt 1703.67 0
v 43.2731 12.74 -18.8014
vt 1703.67 501.575
vt 1600.43 501.575
f 49/245/31 144/246/31 147/247/31 145/248/31 

vt 650.037 0
vn 0.99863 0 -0.052334
vt 700.546 0
v 43.206 12.74 -20.0825
vt 700.546 501.575
vt 650.037 501.575
f 144/249/32 143/250/32 148/251/32 147/252/32 

vt -1701.02 0
vn 0 0 -1
vt -1650.03 0
v 41.9108 12.74 -20.0825
vt -1650.03 501.575
vt -1701.02 501.575
f 143/253/33 142/254/33 149/255/33 148/256/33 

vt -1657.26 0
vn -0.0092348 0 -0.999957
vt -1606.34 0
v 40.6175 12.74 -20.0706
vt -1606.34 501.575
vt -1657.26 501.575
f 142/257/34 141/258/34 150/259/34 149/260/34 

vt 627.146 0
vn 0.995037 0 -0.0995007
vt 663.324 0
vn 0.973537 0 -0.228528
v 40.526 12.74 -20.9849
vt 663.324 501.575
vt 627.146 501.575
f 141/261/35 140/262/36 151/263/36 150/264/35 

vt 208.545 0
vt 280.9 0
vn 0.881218 0 -0.472711
v 39.8761 12.74 -22.704
vt 280.9 501.575
vt 208.545 501.575
f 140/265/36 139/266/37 152/267/37 151/268/36 

vt -190.556 0
vt -118.202 0
vn 0.728844 0 -0.68468
v 38.8034 12.74 -24.1962
vt -118.202 501.575
vt -190.556 501.575
f 139/269/37 138/270/38 153/271/38 152/272/37 

vt -579.137 0
vt -506.782 0
vn 0.526801 0 -0.849989
v 37.381 12.74 -25.36
vt -506.782 501.575
vt -579.137 501.575
f 138/273/38 137/274/39 154/275/39 153/276/38 

vt -930.716 0
vt -858.361 0
vn 0.411349 0 -0.911478
v 35.7059 12.74 -26.116
vt -858.361 501.575
vt -930.716 501.575
f 137/277/39 136/278/40 155/279/40 154/280/39 

vt -1028.19 0
vt -966.237 0
v 35.7059 12.74 -24.5424
vt -966.237 501.575
vt -1028.19 501.575
f 136/281/4 135/282/4 156/283/4 155/284/4 

vt 1070.29 0
vn -0.286282 0 0.958145
vt 1080.48 0
vn -0.408896 0 0.912581
v 35.954 12.74 -24.4683
vt 1080.48 501.575
vt 1070.29 501.575
f 135/285/41 134/286/42 157/287/42 156/288/41 

vt 699.896 0
vt 757.245 0
vn -0.631156 0 0.775656
v 37.1942 12.74 -23.7042
vt 757.245 501.575
vt 699.896 501.575
f 134/289/42 133/290/43 158/291/43 157/292/42 

vt 327.005 0
vt 384.355 0
vn -0.810405 0 0.585871
v 38.1944 12.74 -22.6452
vt 384.355 501.575
vt 327.005 501.575
f 133/293/43 132/294/44 159/295/44 158/296/43 

vt -70.1244 0
vt -12.7751 0
vn -0.934425 0 0.356159
v 38.8864 12.74 -21.3635
vt -12.7751 501.575
vt -70.1244 501.575
f 132/297/44 131/298/45 160/299/45 159/300/44 

vt -464.429 0
vt -407.08 0
vn -0.994766 0 0.102176
v 39.2231 12.74 -19.9462
vt -407.08 501.575
vt -464.429 501.575
f 131/301/45 130/302/46 161/303/46 160/304/45 

vt -829.038 0
vt -771.689 0
vn -0.987316 0 -0.15877
v 39.1816 12.74 -18.4902
vt -771.689 501.575
vt -829.038 501.575
f 130/305/46 129/306/47 162/307/47 161/308/46 

vt -1139.1 0
vt -1081.75 0
vn -0.912581 0 -0.408896
v 38.7645 12.74 -17.0945
vt -1081.75 501.575
vt -1139.1 501.575
f 129/309/47 128/310/48 163/311/48 162/312/47 

vt -1373.5 0
vt -1316.15 0
vn -0.775656 0 -0.631156
v 38.0005 12.74 -15.8542
vt -1316.15 501.575
vt -1373.5 501.575
f 128/313/48 127/314/49 164/315/49 163/316/48 

vt -1516.24 0
vt -1458.89 0
vn -0.585871 0 -0.810405
v 36.9415 12.74 -14.854
vt -1458.89 501.575
vt -1516.24 501.575
f 127/317/49 126/318/50 165/319/50 164/320/49 

vt -1557.61 0
vt -1500.26 0
vn -0.356159 0 -0.934425
v 35.6597 12.74 -14.162
vt -1500.26 501.575
vt -1557.61 501.575
f 126/321/50 125/322/51 166/323/51 165/324/50 

vt -1494.78 0
vt -1485.88 0
vn -0.231145 0 -0.972919
v 35.4397 12.74 -14.1097
vt -1485.88 501.575
vt -1494.78 501.575
f 125/325/51 124/326/52 167/327/52 166/328/51 

vt 555.501 0
vn 1 0 -0
vt 617.853 0
v 35.4397 12.74 -15.6935
vt 617.853 501.575
vt 555.501 501.575
f 124/329/53 123/330/53 168/331/53 167/332/53 

vt 1525.23 0
vn 0.43267 0 0.901553
vt 1546.4 0
vn 0.546644 0 0.837365
v 35.9245 12.74 -15.9261
vt 1546.4 501.575
vt 1525.23 501.575
f 123/333/54 122/334/55 169/335/55 168/336/54 

vt 1481.63 0
vt 1523.98 0
vn 0.744744 0 0.667351
v 36.7407 12.74 -16.6266
vt 1523.98 501.575
vt 1481.63 501.575
f 122/337/55 121/338/56 170/339/56 169/340/55 

vt 1356.79 0
vt 1399.14 0
vn 0.89209 0 0.451857
v 37.3478 12.74 -17.5144
vt 1399.14 501.575
vt 1356.79 501.575
f 121/341/56 120/342/57 171/343/57 170/344/56 

vt 1138.05 0
vt 1180.39 0
vn 0.978642 0 0.205571
v 37.7043 12.74 -18.5291
vt 1180.39 501.575
vt 1138.05 501.575
f 120/345/57 119/346/58 172/347/58 171/348/57 

vt 840.305 0
vt 882.649 0
vn 0.998501 0 -0.0547253
v 37.7862 12.74 -19.6016
vt 882.649 501.575
vt 840.305 501.575
f 119/349/58 118/350/59 173/351/59 172/352/58 

vt 483.853 0
vt 526.197 0
vn 0.950314 0 -0.311292
v 37.5876 12.74 -20.6586
vt 526.197 501.575
vt 483.853 501.575
f 118/353/59 117/354/60 174/355/60 173/356/59 

vt 92.9842 0
vt 135.328 0
vn 0.837365 0 -0.546644
v 37.1223 12.74 -21.6283
vt 135.328 501.575
vt 92.9842 501.575
f 117/357/60 116/358/61 175/359/61 174/360/60 

vt -305.664 0
vt -263.32 0
vn 0.667351 0 -0.744744
v 36.4218 12.74 -22.4444
vt -263.32 501.575
vt -305.664 501.575
f 116/361/61 115/362/62 176/363/62 175/364/61 

vt -684.925 0
vt -642.581 0
vn 0.451857 0 -0.89209
v 35.534 12.74 -23.0515
vt -642.581 501.575
vt -684.925 501.575
f 115/365/62 114/366/63 177/367/63 176/368/62 

vt -1018.95 0
vt -976.608 0
vn 0.205571 0 -0.978642
v 34.5193 12.74 -23.4081
vt -976.608 501.575
vt -1018.95 501.575
f 114/369/63 113/370/64 178/371/64 177/372/63 

vt -1284.98 0
vt -1274.98 0
vn 0.0760735 0 -0.997102
v 34.2659 12.74 -23.4274
vt -1274.98 501.575
vt -1284.98 501.575
f 113/373/64 112/374/65 179/375/65 178/376/64 

vt 922.34 0
vt 980.065 0
v 34.2659 12.74 -24.8937
vt 980.065 501.575
vt 922.34 501.575
f 112/377/53 111/378/53 180/379/53 179/380/53 

vt 1037.46 0
v 34.2659 12.74 -26.3515
vt 1037.46 501.575
f 111/378/53 110/381/53 181/382/53 180/379/53 

vt -1163.89 0
vn 0.161424 0 -0.986885
vt -1148.98 0
vn 0.031229 0 -0.999512
v 33.8922 12.74 -26.4127
vt -1148.98 501.575
vt -1163.89 501.575
f 110/383/66 109/384/67 182/385/67 181/386/66 

vt -1431.18 0
vt -1395.01 0
vn -0.0995007 0 -0.995037
v 32.9779 12.74 -26.3212
vt -1395.01 501.575
vt -1431.18 501.575
f 109/387/67 108/388/68 183/389/68 182/390/67 

vt -1036.27 0
vt -980.21 0
v 32.9779 12.74 -24.8973
vt -980.21 501.575
vt -1036.27 501.575
f 108/391/4 107/392/4 184/393/4 183/394/4 

vt -921.332 0
v 32.9779 12.74 -23.4018
vt -921.332 501.575
f 107/392/4 106/395/4 185/396/4 184/393/4 

vt -1446.1 0
vn -0.184588 0 -0.982816
vt -1422.54 0
vn -0.311292 0 -0.950314
v 32.3898 12.74 -23.2914
vt -1422.54 501.575
vt -1446.1 501.575
f 106/397/69 105/398/70 186/399/70 185/400/69 

vt -1546.4 0
vt -1504.06 0
vn -0.546644 0 -0.837365
v 31.4202 12.74 -22.826
vt -1504.06 501.575
vt -1546.4 501.575
f 105/401/70 104/402/71 187/403/71 186/404/70 

vt -1523.98 0
vt -1481.63 0
vn -0.744744 0 -0.667351
v 30.604 12.74 -22.1256
vt -1481.63 501.575
vt -1523.98 501.575
f 104/405/71 103/406/72 188/407/72 187/408/71 

vt -1399.14 0
vt -1356.79 0
vn -0.89209 0 -0.451857
v 29.9969 12.74 -21.2377
vt -1356.79 501.575
vt -1399.14 501.575
f 103/409/72 102/410/73 189/411/73 188/412/72 

vt -1180.39 0
vt -1138.05 0
vn -0.978642 0 -0.205571
v 29.6403 12.74 -20.223
vt -1138.05 501.575
vt -1180.39 501.575
f 102/413/73 101/414/74 190/415/74 189/416/73 

vt -882.649 0
vt -840.305 0
vn -0.998501 0 0.0547253
v 29.5585 12.74 -19.1506
vt -840.305 501.575
vt -882.649 501.575
f 101/417/74 100/418/75 191/419/75 190/420/74 

vt -526.197 0
vt -483.853 0
vn -0.950314 0 0.311292
v 29.757 12.74 -18.0936
vt -483.853 501.575
vt -526.197 501.575
f 100/421/75 99/422/76 192/423/76 191/424/75 

vt -135.328 0
vt -92.9842 0
vn -0.837365 0 0.546644
v 30.2224 12.74 -17.1239
vt -92.9842 501.575
vt -135.328 501.575
f 99/425/76 98/426/77 193/427/77 192/428/76 

vt 263.32 0
vt 305.664 0
vn -0.667351 0 0.744744
v 30.9229 12.74 -16.3077
vt 305.664 501.575
vt 263.32 501.575
f 98/429/77 97/430/78 194/431/78 193/432/77 

vt 642.581 0
vt 684.925 0
vn -0.451857 0 0.89209
v 31.8107 12.74 -15.7007
vt 684.925 501.575
vt 642.581 501.575
f 97/433/78 96/434/79 195/435/79 194/436/78 

vt 976.608 0
vt 980.148 0
vn -0.33155 0 0.943438
v 31.8955 12.74 -15.6709
vt 980.148 501.575
vt 976.608 501.575
f 96/437/79 95/438/80 196/439/80 195/440/79 

vt -616.963 0
vt -444.637 0
v 31.8955 12.74 -11.2938
vt -444.637 501.575
vt -616.963 501.575
f 95/441/4 94/442/4 197/443/4 196/444/4 

vt -1158.31 0
vn 0.175348 0 -0.984506
vt -1128.52 0
vn 0.302352 0 -0.953196
v 31.1507 12.74 -11.4264
vt -1128.52 501.575
vt -1158.31 501.575
f 94/445/81 93/446/82 198/447/82 197/448/81 

vt -919.783 0
vt -834.067 0
vn 0.538755 0 -0.842462
v 29.1791 12.74 -12.35
vt -834.067 501.575
vt -919.783 501.575
f 93/449/82 92/450/83 199/451/83 198/452/82 

vt -565.566 0
vt -479.85 0
vn 0.738443 0 -0.674316
v 27.5137 12.74 -13.7523
vt -479.85 501.575
vt -565.566 501.575
f 92/453/83 91/454/84 200/455/84 199/456/83 

vt -175.727 0
vt -90.0113 0
vn 0.887807 0 -0.460216
v 26.268 12.74 -15.5379
vt -90.0113 501.575
vt -175.727 501.575
f 91/457/84 90/458/85 201/459/85 200/460/84 

vt 223.167 0
vt 308.882 0
vn 0.976668 0 -0.214753
v 25.5269 12.74 -17.585
vt 308.882 501.575
vt 223.167 501.575
f 90/461/85 89/462/86 202/463/86 201/464/85 

vt 603.931 0
vt 614.225 0
vn 0.996344 0 -0.0854355
v 25.5046 12.74 -17.8456
vt 614.225 501.575
vt 603.931 501.575
f 89/465/86 88/466/87 203/467/87 202/468/86 

vt -1004.12 0
vt -952.044 0
v 24.1819 12.74 -17.8456
vt -952.044 501.575
vt -1004.12 501.575
f 88/469/33 87/470/33 204/471/33 203/472/33 

vt -651.794 0
vn -0.99863 0 0.052334
vt -642.876 0
vn -0.983255 0 0.182234
v 24.1938 12.74 -17.6194
vt -642.876 501.575
vt -651.794 501.575
f 87/473/88 86/474/89 205/475/89 204/476/88 

vt -365.385 0
vt -266.308 0
vn -0.902586 0 0.430509
v 24.9714 12.74 -15.226
vt -266.308 501.575
vt -365.385 501.575
f 86/477/89 85/478/90 206/479/90 205/480/89 

vt 32.7073 0
vt 131.784 0
vn -0.760407 0 0.649447
v 26.342 12.74 -13.1154
vt 131.784 501.575
vt 32.7073 501.575
f 85/481/90 84/482/91 207/483/91 206/484/90 

vt 425.195 0
vt 524.271 0
vn -0.566408 0 0.824125
v 28.2122 12.74 -11.4315
vt 524.271 501.575
vt 425.195 501.575
f 84/485/91 83/486/92 208/487/92 207/488/91 

vt 785.33 0
vt 884.406 0
vn -0.333809 0 0.942641
v 30.4544 12.74 -10.289
vt 884.406 501.575
vt 785.33 501.575
f 83/489/92 82/490/93 209/491/93 208/492/92 

vt 1088.57 0
vt 1187.65 0
vn -0.0784611 0 0.996917
v 32.916 12.74 -9.76581
vt 1187.65 501.575
vt 1088.57 501.575
f 82/493/93 81/494/94 210/495/94 209/496/93 

vt 1314.25 0
vt 1324.9 0
vn 0.052334 0 0.99863
v 33.1861 12.74 -9.77996
vt 1324.9 501.575
vt 1314.25 501.575
f 81/497/94 80/498/95 211/499/95 210/500/94 

vt 385.038 0
vt 659.202 0
v 33.1861 12.74 -16.7437
vt 659.202 501.575
vt 385.038 501.575
f 80/501/53 79/502/53 212/503/53 211/504/53 

vt -1165.05 0
vn 0.181659 0 -0.983362
vt -1151.17 0
vn 0.308459 0 -0.951237
v 32.8395 12.74 -16.8077
vt -1151.17 501.575
vt -1165.05 501.575
f 79/505/96 78/506/97 213/507/97 212/508/96 

vt -882.744 0
vt -854.995 0
vn 0.544147 0 -0.83899
v 32.2031 12.74 -17.1108
vt -854.995 501.575
vt -882.744 501.575
f 78/509/97 77/510/98 214/511/98 213/512/97 

vt -527.353 0
vt -499.603 0
vn 0.742752 0 -0.669566
v 31.6669 12.74 -17.5683
vt -499.603 501.575
vt -527.353 501.575
f 77/513/98 76/514/99 215/515/99 214/516/98 

vt -136.969 0
vt -109.219 0
vn 0.89074 0 -0.454513
v 31.2673 12.74 -18.1489
vt -109.219 501.575
vt -136.969 501.575
f 76/517/99 75/518/100 216/519/100 215/520/99 

vt 261.804 0
vt 289.554 0
vn 0.978026 0 -0.208485
v 31.0317 12.74 -18.8132
vt 289.554 501.575
vt 261.804 501.575
f 75/521/100 74/522/101 217/523/101 216/524/100 

vt 641.79 0
vt 669.54 0
vn 0.99866 0 0.0517506
v 30.976 12.74 -19.5158
vt 669.54 501.575
vt 641.79 501.575
f 74/525/101 73/526/102 218/527/102 217/528/101 

vt 977.093 0
vt 1004.84 0
vn 0.951237 0 0.308459
v 31.104 12.74 -20.2089
vt 1004.84 501.575
vt 977.093 501.575
f 73/529/102 72/530/103 219/531/103 218/532/102 

vt 1244.86 0
vt 1272.61 0
vn 0.83899 0 0.544147
v 31.4071 12.74 -20.8453
vt 1272.61 501.575
vt 1244.86 501.575
f 72/533/103 71/534/104 220/535/104 219/536/103 

vt 1426.85 0
vt 1454.6 0
vn 0.669566 0 0.742752
v 31.8645 12.74 -21.3815
vt 1454.6 501.575
vt 1426.85 501.575
f 71/537/104 70/538/105 221/539/105 220/540/104 

vt 1510.66 0
vt 1538.41 0
vn 0.454513 0 0.89074
v 32.4452 12.74 -21.7811
vt 1538.41 501.575
vt 1510.66 501.575
f 70/541/105 69/542/106 222/543/106 221/544/105 

vt 1490.57 0
vt 1518.32 0
vn 0.208485 0 0.978026
v 33.1094 12.74 -22.0168
vt 1518.32 501.575
vt 1490.57 501.575
f 69/545/106 68/546/107 223/547/107 222/548/106 

vt 1367.96 0
vt 1395.71 0
vn -0.0517506 0 0.99866
v 33.8121 12.74 -22.0725
vt 1395.71 501.575
vt 1367.96 501.575
f 68/549/107 67/550/108 224/551/108 223/552/107 

vt 1151.17 0
vt 1178.92 0
vn -0.308459 0 0.951237
v 34.5052 12.74 -21.9444
vt 1178.92 501.575
vt 1151.17 501.575
f 67/553/108 66/554/109 225/555/109 224/556/108 

vt 854.995 0
vt 882.744 0
vn -0.544147 0 0.83899
v 35.1415 12.74 -21.6414
vt 882.744 501.575
vt 854.995 501.575
f 66/557/109 65/558/110 226/559/110 225/560/109 

vt 499.603 0
vt 527.353 0
vn -0.742752 0 0.669566
v 35.6778 12.74 -21.1839
vt 527.353 501.575
vt 499.603 501.575
f 65/561/110 64/562/111 227/563/111 226/564/110 

vt 109.219 0
vt 136.969 0
vn -0.89074 0 0.454513
v 36.0773 12.74 -20.6033
vt 136.969 501.575
vt 109.219 501.575
f 64/565/111 63/566/112 228/567/112 227/568/111 

vt -289.554 0
vt -261.804 0
vn -0.978026 0 0.208485
v 36.313 12.74 -19.939
vt -261.804 501.575
vt -289.554 501.575
f 63/569/112 62/570/113 229/571/113 228/572/112 

vt -669.54 0
vt -641.79 0
vn -0.99866 0 -0.0517506
v 36.3687 12.74 -19.2364
vt -641.79 501.575
vt -669.54 501.575
f 62/573/113 61/574/114 230/575/114 229/576/113 

vt -1004.84 0
vt -977.093 0
vn -0.951237 0 -0.308459
v 36.2407 12.74 -18.5432
vt -977.093 501.575
vt -1004.84 501.575
f 61/577/114 60/578/115 231/579/115 230/580/114 

vt -1272.61 0
vt -1244.86 0
vn -0.83899 0 -0.544147
v 35.9376 12.74 -17.9069
vt -1244.86 501.575
vt -1272.61 501.575
f 60/581/115 59/582/116 232/583/116 231/584/115 

vt -1454.6 0
vt -1426.85 0
vn -0.669566 0 -0.742752
v 35.4802 12.74 -17.3707
vt -1426.85 501.575
vt -1454.6 501.575
f 59/585/116 58/586/117 233/587/117 232/588/116 

vt -1538.41 0
vt -1510.66 0
vn -0.454513 0 -0.89074
v 34.8995 12.74 -16.9711
vt -1510.66 501.575
vt -1538.41 501.575
f 58/589/117 57/590/118 234/591/118 233/592/117 

vt -1518.32 0
vt -1490.57 0
vn -0.334359 0 -0.942446
v 34.2353 12.74 -16.7354
vt -1490.57 501.575
vt -1518.32 501.575
f 57/593/118 56/594/119 235/595/119 234/596/118 

vt -658.875 0
vt -488.89 0
v 34.2353 12.74 -12.4178
vt -488.89 501.575
vt -658.875 501.575
f 56/597/4 55/598/4 236/599/4 235/600/4 

vt 1389.8 0
vn 0.0995007 0 0.995037
vt 1431.18 0
vn 0.228528 0 0.973537
v 35.2812 12.74 -12.5224
vt 1431.18 501.575
vt 1389.8 501.575
f 55/601/120 54/602/121 237/603/121 236/604/120 

vt 1473.61 0
vt 1545.97 0
vn 0.472711 0 0.881218
v 37.0002 12.74 -13.1723
vt 1545.97 501.575
vt 1473.61 501.575
f 54/605/121 53/606/122 238/607/122 237/608/121 

vt 1485.51 0
vt 1557.86 0
vn 0.68468 0 0.728844
v 38.4925 12.74 -14.245
vt 1557.86 501.575
vt 1485.51 501.575
f 53/609/122 52/610/123 239/611/123 238/612/122 

vt 1393.7 0
vt 1466.06 0
vn 0.849989 0 0.526801
v 39.6563 12.74 -15.6674
vt 1466.06 501.575
vt 1393.7 501.575
f 52/613/123 51/614/124 240/615/124 239/616/123 

vt 1204.45 0
vt 1276.81 0
vt 1276.81 501.575
vt 1204.45 501.575
f 51/617/124 50/618/29 146/619/29 240/620/124 

vt 1591.03 682.777
vt 1600.43 740.211
vt 1703.67 740.211
vt 1701.02 790.651
vt 1650.03 790.651
vt 1599.11 790.18
vt 1595.51 826.178
vt 1569.93 893.857
vt 1527.69 952.608
vt 1471.69 998.426
vt 1405.74 1028.19
vt 1405.74 966.237
vt 1415.51 963.319
vt 1464.34 933.238
vt 1503.72 891.545
vt 1530.96 841.081
vt 1544.22 785.285
vt 1542.58 727.959
vt 1526.16 673.01
vt 1496.08 624.183
vt 1454.39 584.804
vt 1403.93 557.559
vt 1395.26 555.501
vt 1395.26 617.853
vt 1414.35 627.014
vt 1446.48 654.591
vt 1470.38 689.545
vt 1484.42 729.494
vt 1487.64 771.715
vt 1479.83 813.331
vt 1461.51 851.506
vt 1433.93 883.639
vt 1398.98 907.539
vt 1359.03 921.579
vt 1349.05 922.34
vt 1349.05 980.065
vt 1349.05 1037.46
vt 1334.34 1039.87
vt 1298.34 1036.27
vt 1298.34 980.21
vt 1298.34 921.332
vt 1275.19 916.984
vt 1237.01 898.663
vt 1204.88 871.086
vt 1180.98 836.132
vt 1166.94 796.183
vt 1163.72 753.961
vt 1171.54 712.345
vt 1189.86 674.17
vt 1217.44 642.037
vt 1252.39 618.137
vt 1255.73 616.963
vt 1255.73 444.637
vt 1226.41 449.86
vt 1148.78 486.219
vt 1083.22 541.429
vt 1034.17 611.728
vt 1005 692.325
vt 1004.12 702.581
vt 952.044 702.581
vt 952.51 693.676
vt 983.126 599.448
vt 1037.09 516.355
vt 1110.72 450.06
vt 1198.99 405.08
vt 1295.9 384.481
vt 1306.54 385.038
vt 1306.54 659.202
vt 1292.89 661.722
vt 1267.84 673.654
vt 1246.73 691.664
vt 1231 714.524
vt 1221.72 740.676
vt 1219.53 768.339
vt 1224.57 795.627
vt 1236.5 820.681
vt 1254.51 841.792
vt 1277.37 857.523
vt 1303.52 866.802
vt 1331.18 868.995
vt 1358.47 863.954
vt 1383.53 852.022
vt 1404.64 834.013
vt 1420.37 811.153
vt 1429.65 785
vt 1431.84 757.337
vt 1426.8 730.049
vt 1414.87 704.996
vt 1396.86 683.884
vt 1374 668.153
vt 1347.84 658.875
vt 1347.84 488.89
vt 1389.02 493.007
vt 1456.7 518.595
vt 1515.45 560.828
vt 1561.27 616.827
f 146/621/28 145/622/28 147/623/28 148/624/28 149/625/28 150/626/28 151/627/28 152/628/28 153/629/28 154/630/28 155/631/28 156/632/28 157/633/28 158/634/28 159/635/28 160/636/28 161/637/28 162/638/28 163/639/28 164/640/28 165/641/28 166/642/28 167/643/28 168/644/28 169/645/28 170/646/28 171/647/28 172/648/28 173/649/28 174/650/28 175/651/28 176/652/28 177/653/28 178/654/28 179/655/28 180/656/28 181/657/28 182/658/28 183/659/28 184/660/28 185/661/28 186/662/28 187/663/28 188/664/28 189/665/28 190/666/28 191/667/28 192/668/28 193/669/28 194/670/28 195/671/28 196/672/28 197/673/28 198/674/28 199/675/28 200/676/28 201/677/28 202/678/28 203/679/28 204/680/28 205/681/28 206/682/28 207/683/28 208/684/28 209/685/28 210/686/28 211/687/28 212/688/28 213/689/28 214/690/28 215/691/28 216/692/28 217/693/28 218/694/28 219/695/28 220/696/28 221/697/28 222/698/28 223/699/28 224/700/28 225/701/28 226/702/28 227/703/28 228/704/28 229/705/28 230/706/28 231/707/28 232/708/28 233/709/28 234/710/28 235/711/28 236/712/28 237/713/28 238/714/28 239/715/28 240/716/28 

g Mesh3 Model

v 31.6983 0 -30.3186
vt -1247.96 1193.64
v 29.0775 0 -29.5243
vt -1144.78 1162.38
v 26.6075 0 -27.9893
vt -1047.54 1101.94
v 24.619 0 -25.8673
vt -969.25 1018.4
v 23.2474 0 -23.3029
vt -915.252 917.438
v 22.5863 0 -20.471
vt -889.223 805.943
v 22.6807 0 -17.5644
vt -892.939 691.51
v 23.5241 0 -14.7812
vt -926.145 581.939
v 25.0591 0 -12.3112
vt -986.58 484.695
v 27.1811 0 -10.3227
vt -1070.12 406.406
v 29.7455 0 -8.95115
vt -1171.08 352.407
v 30.7602 0 -8.71425
vt -1211.03 343.081
v 30.7602 0 -7.39755
vt -1211.03 291.242
v 28.899 0 -7.89915
vt -1137.76 310.99
v 26.0912 0 -9.52565
vt -1027.21 375.026
v 23.8 0 -11.8234
vt -937.009 465.49
v 22.1817 0 -14.6359
vt -873.294 576.218
v 21.3464 0 -17.7715
vt -840.408 699.664
v 21.351 0 -21.0163
vt -840.592 827.415
v 22.1954 0 -24.1494
vt -873.835 950.765
v 23.8219 0 -26.9572
vt -937.87 1061.31
v 26.1197 0 -29.2484
vt -1028.33 1151.51
v 28.9322 0 -30.8668
vt -1139.06 1215.23
v 31.6983 0 -31.6037
vt -1247.96 1244.24
f 241/717/1 242/718/1 243/719/1 244/720/1 245/721/1 246/722/1 247/723/1 248/724/1 249/725/1 250/726/1 251/727/1 252/728/1 253/729/1 254/730/1 255/731/1 256/732/1 257/733/1 258/734/1 259/735/1 260/736/1 261/737/1 262/738/1 263/739/1 264/740/1 

vt 1432.7 0
vn 0.412464 0 0.910974
vt 1540.52 0
vn 0.290029 0 0.957018
v 31.6983 12.74 -30.3186
vt 1540.52 501.575
v 29.0775 12.74 -29.5243
vt 1432.7 501.575
f 242/741/125 241/742/126 265/743/126 266/744/125 

vt 1193.64 0
vt 1244.24 0
v 31.6983 12.74 -31.6037
vt 1244.24 501.575
vt 1193.64 501.575
f 241/745/53 264/746/53 267/747/53 265/748/53 

vt -1526.2 0
vn -0.257423 0 -0.966299
vt -1413.5 0
vn -0.381348 0 -0.924432
v 28.9322 12.74 -30.8668
vt -1413.5 501.575
vt -1526.2 501.575
f 264/749/127 263/750/128 268/751/128 267/752/127 

vt -1593.37 0
vt -1465.62 0
vn -0.607614 0 -0.794232
v 26.1197 12.74 -29.2484
vt -1465.62 501.575
vt -1593.37 501.575
f 263/753/128 262/754/129 269/755/129 268/756/128 

vt -1541.26 0
vt -1413.51 0
vn -0.792473 0 -0.609907
v 23.8219 12.74 -26.9572
vt -1413.51 501.575
vt -1541.26 501.575
f 262/757/129 261/758/130 270/759/130 269/760/129 

vt -1388.46 0
vt -1260.71 0
vn -0.923326 0 -0.384018
v 22.1954 12.74 -24.1494
vt -1260.71 501.575
vt -1388.46 501.575
f 261/761/130 260/762/131 271/763/131 270/764/130 

vt -1145.4 0
vt -1017.65 0
vn -0.991255 0 -0.131959
v 21.351 12.74 -21.0163
vt -1017.65 501.575
vt -1145.4 501.575
f 260/765/131 259/766/132 272/767/132 271/768/131 

vt -828.629 0
vt -700.878 0
vn -0.991632 0 0.129093
v 21.3464 12.74 -17.7715
vt -700.878 501.575
vt -828.629 501.575
f 259/769/132 258/770/133 273/771/133 272/772/132 

vt -459.744 0
vt -331.993 0
vn -0.924432 0 0.381348
v 22.1817 12.74 -14.6359
vt -331.993 501.575
vt -459.744 501.575
f 258/773/133 257/774/134 274/775/134 273/776/133 

vt -63.8818 0
vt 63.8694 0
vn -0.794232 0 0.607614
v 23.8 12.74 -11.8234
vt 63.8694 501.575
vt -63.8818 501.575
f 257/777/134 256/778/135 275/779/135 274/780/134 

vt 331.981 0
vt 459.732 0
vn -0.609907 0 0.792473
v 26.0912 12.74 -9.52565
vt 459.732 501.575
vt 331.981 501.575
f 256/781/135 255/782/136 276/783/136 275/784/135 

vt 700.867 0
vt 828.618 0
vn -0.384018 0 0.923326
v 28.899 12.74 -7.89915
vt 828.618 501.575
vt 700.867 501.575
f 255/785/136 254/786/137 277/787/137 276/788/136 

vt 1017.64 0
vt 1093.53 0
vn -0.260215 0 0.965551
v 30.7602 12.74 -7.39755
vt 1093.53 501.575
vt 1017.64 501.575
f 254/789/137 253/790/138 278/791/138 277/792/137 

vt 291.242 0
vt 343.081 0
v 30.7602 12.74 -8.71425
vt 343.081 501.575
vt 291.242 501.575
f 253/793/53 252/794/53 279/795/53 278/796/53 

vt -1101.33 0
vn 0.227336 0 -0.973816
vt -1060.3 0
vn 0.3525 0 -0.935812
v 29.7455 12.74 -8.95115
vt -1060.3 501.575
vt -1101.33 501.575
f 252/797/139 251/798/140 280/799/140 279/800/139 

vt -866.449 0
vt -751.956 0
vn 0.582694 0 -0.812691
v 27.1811 12.74 -10.3227
vt -751.956 501.575
vt -866.449 501.575
f 251/801/140 250/802/141 281/803/141 280/804/140 

vt -502.954 0
vt -388.461 0
vn 0.77318 0 -0.634187
v 25.0591 12.74 -12.3112
vt -388.461 501.575
vt -502.954 501.575
f 250/805/141 249/806/142 282/807/142 281/808/141 

vt -109.085 0
vt 5.40762 0
vn 0.910974 0 -0.412464
v 23.5241 12.74 -14.7812
vt 5.40762 501.575
vt -109.085 501.575
f 249/809/142 248/810/143 283/811/143 282/812/142 

vt 288.316 0
vt 402.809 0
vn 0.986687 0 -0.162632
v 22.6807 12.74 -17.5644
vt 402.809 501.575
vt 288.316 501.575
f 248/813/143 247/814/144 284/815/144 283/816/143 

vt 662.168 0
vt 776.661 0
vn 0.995159 0 0.0982826
v 22.5863 12.74 -20.471
vt 776.661 501.575
vt 662.168 501.575
f 247/817/144 246/818/145 285/819/145 284/820/144 

vt 986.993 0
vt 1101.49 0
vn 0.935812 0 0.3525
v 23.2474 12.74 -23.3029
vt 1101.49 501.575
vt 986.993 501.575
f 246/821/145 245/822/146 286/823/146 285/824/145 

vt 1240.66 0
vt 1355.15 0
vn 0.812691 0 0.582694
v 24.619 12.74 -25.8673
vt 1355.15 501.575
vt 1240.66 501.575
f 245/825/146 244/826/147 287/827/147 286/828/146 

vt 1405.87 0
vt 1520.36 0
vn 0.634187 0 0.77318
v 26.6075 12.74 -27.9893
vt 1520.36 501.575
vt 1405.87 501.575
f 244/829/147 243/830/148 288/831/148 287/832/147 

vt 1471.37 0
vt 1585.86 0
vt 1585.86 501.575
vt 1471.37 501.575
f 243/833/148 242/834/125 266/835/125 288/836/148 

vt 1144.78 1162.38
vt 1247.96 1193.64
vt 1247.96 1244.24
vt 1139.06 1215.23
vt 1028.33 1151.51
vt 937.87 1061.31
vt 873.835 950.765
vt 840.592 827.415
vt 840.408 699.664
vt 873.294 576.218
vt 937.009 465.49
vt 1027.21 375.026
vt 1137.76 310.99
vt 1211.03 291.242
vt 1211.03 343.081
vt 1171.08 352.407
vt 1070.12 406.406
vt 986.58 484.695
vt 926.145 581.939
vt 892.939 691.51
vt 889.223 805.943
vt 915.252 917.438
vt 969.25 1018.4
vt 1047.54 1101.94
f 266/837/28 265/838/28 267/839/28 268/840/28 269/841/28 270/842/28 271/843/28 272/844/28 273/845/28 274/846/28 275/847/28 276/848/28 277/849/28 278/850/28 279/851/28 280/852/28 281/853/28 282/854/28 283/855/28 284/856/28 285/857/28 286/858/28 287/859/28 288/860/28 

g Mesh4 Model

v 31.685 0 -24.5902
vt -1247.44 968.117
v 30.4032 0 -23.8981
vt -1196.98 940.872
v 29.3442 0 -22.8979
vt -1155.28 901.494
v 28.5801 0 -21.6577
vt -1125.2 852.666
v 28.1631 0 -20.262
vt -1108.78 797.718
v 28.1215 0 -18.8059
vt -1107.15 740.392
v 28.4583 0 -17.3887
vt -1120.4 684.595
v 29.1503 0 -16.1069
vt -1147.65 634.131
v 30.1505 0 -15.0479
vt -1187.03 592.438
v 30.8012 0 -14.647
vt -1212.65 576.655
v 30.8012 0 -13.0142
vt -1212.65 512.369
v 29.9637 0 -13.3922
vt -1179.67 527.251
v 28.5413 0 -14.5559
vt -1123.67 573.069
v 27.4686 0 -16.0482
vt -1081.44 631.819
v 26.8186 0 -17.7673
vt -1055.85 699.498
v 26.6358 0 -19.5959
vt -1048.65 771.494
v 26.9324 0 -21.4096
vt -1060.33 842.9
v 27.6884 0 -23.0848
vt -1090.1 908.849
v 28.8522 0 -24.5072
vt -1135.91 964.849
v 30.3445 0 -25.5799
vt -1194.66 1007.08
v 31.6797 0 -26.0847
vt -1247.23 1026.96
f 289/861/1 290/862/1 291/863/1 292/864/1 293/865/1 294/866/1 295/867/1 296/868/1 297/869/1 298/870/1 299/871/1 300/872/1 301/873/1 302/874/1 303/875/1 304/876/1 305/877/1 306/878/1 307/879/1 308/880/1 309/881/1 

vt 1500.26 0
vn 0.585871 0 0.810405
vt 1557.61 0
vn 0.475079 0 0.879943
v 31.685 12.74 -24.5902
vt 1557.61 501.575
v 30.4032 12.74 -23.8981
vt 1500.26 501.575
f 290/882/149 289/883/150 310/884/150 311/885/149 

vt 963.691 0
vn 0.999994 0 -0.00354391
vt 1022.53 0
v 31.6797 12.74 -26.0847
vt 1022.53 501.575
vt 963.691 501.575
f 289/886/151 309/887/151 312/888/151 310/889/151 

vt -1529.81 0
vn -0.353645 0 -0.93538
vt -1473.61 0
vn -0.472711 0 -0.881218
v 30.3445 12.74 -25.5799
vt -1473.61 501.575
vt -1529.81 501.575
f 309/890/152 308/891/153 313/892/153 312/893/152 

vt -1557.86 0
vt -1485.51 0
vn -0.68468 0 -0.728844
v 28.8522 12.74 -24.5072
vt -1485.51 501.575
vt -1557.86 501.575
f 308/894/153 307/895/154 314/896/154 313/897/153 

vt -1466.06 0
vt -1393.7 0
vn -0.849989 0 -0.526801
v 27.6884 12.74 -23.0848
vt -1393.7 501.575
vt -1466.06 501.575
f 307/898/154 306/899/155 315/900/155 314/901/154 

vt -1276.81 0
vt -1204.45 0
vn -0.957372 0 -0.288858
v 26.9324 12.74 -21.4096
vt -1204.45 501.575
vt -1276.81 501.575
f 306/902/155 305/903/156 316/904/156 315/905/155 

vt -1003.01 0
vt -930.654 0
vn -0.999512 0 -0.031229
v 26.6358 12.74 -19.5959
vt -930.654 501.575
vt -1003.01 501.575
f 305/906/156 304/907/157 317/908/157 316/909/156 

vt -663.324 0
vt -590.969 0
vn -0.973537 0 0.228528
v 26.8186 12.74 -17.7673
vt -590.969 501.575
vt -663.324 501.575
f 304/910/157 303/911/158 318/912/158 317/913/157 

vt -280.9 0
vt -208.545 0
vn -0.881218 0 0.472711
v 27.4686 12.74 -16.0482
vt -208.545 501.575
vt -280.9 501.575
f 303/914/158 302/915/159 319/916/159 318/917/158 

vt 118.202 0
vt 190.556 0
vn -0.728844 0 0.68468
v 28.5413 12.74 -14.5559
vt 190.556 501.575
vt 118.202 501.575
f 302/918/159 301/919/160 320/920/160 319/921/159 

vt 506.782 0
vt 579.137 0
vn -0.526801 0 0.849989
v 29.9637 12.74 -13.3922
vt 579.137 501.575
vt 506.782 501.575
f 301/922/160 300/923/161 321/924/161 320/925/160 

vt 858.361 0
vt 894.538 0
vn -0.411349 0 0.911478
v 30.8012 12.74 -13.0142
vt 894.538 501.575
vt 858.361 501.575
f 300/926/161 299/927/162 322/928/162 321/929/161 

vt 512.369 0
vt 576.655 0
v 30.8012 12.74 -14.647
vt 576.655 501.575
vt 512.369 501.575
f 299/930/53 298/931/53 323/932/53 322/933/53 

vt -729.987 0
vn 0.524513 0 -0.851402
vt -699.896 0
vn 0.631156 0 -0.775656
v 30.1505 12.74 -15.0479
vt -699.896 501.575
vt -729.987 501.575
f 298/934/163 297/935/164 324/936/164 323/937/163 

vt -384.355 0
vt -327.005 0
vn 0.810405 0 -0.585871
v 29.1503 12.74 -16.1069
vt -327.005 501.575
vt -384.355 501.575
f 297/938/164 296/939/165 325/940/165 324/941/164 

vt 12.7751 0
vt 70.1244 0
vn 0.934425 0 -0.356159
v 28.4583 12.74 -17.3887
vt 70.1244 501.575
vt 12.7751 501.575
f 296/942/165 295/943/166 326/944/166 325/945/165 

vt 407.08 0
vt 464.429 0
vn 0.994766 0 -0.102176
v 28.1215 12.74 -18.8059
vt 464.429 501.575
vt 407.08 501.575
f 295/946/166 294/947/167 327/948/167 326/949/166 

vt 771.689 0
vt 829.038 0
vn 0.987316 0 0.15877
v 28.1631 12.74 -20.262
vt 829.038 501.575
vt 771.689 501.575
f 294/950/167 293/951/168 328/952/168 327/953/167 

vt 1081.75 0
vt 1139.1 0
vn 0.912581 0 0.408896
v 28.5801 12.74 -21.6577
vt 1139.1 501.575
vt 1081.75 501.575
f 293/954/168 292/955/169 329/956/169 328/957/168 

vt 1316.15 0
vt 1373.5 0
vn 0.775656 0 0.631156
v 29.3442 12.74 -22.8979
vt 1373.5 501.575
vt 1316.15 501.575
f 292/958/169 291/959/170 330/960/170 329/961/169 

vt 1458.89 0
vt 1516.24 0
vt 1516.24 501.575
vt 1458.89 501.575
f 291/962/170 290/963/149 311/964/149 330/965/170 

vt 1196.98 940.872
vt 1247.44 968.117
vt 1247.23 1026.96
vt 1194.66 1007.08
vt 1135.91 964.849
vt 1090.1 908.849
vt 1060.33 842.9
vt 1048.65 771.494
vt 1055.85 699.498
vt 1081.44 631.819
vt 1123.67 573.069
vt 1179.67 527.251
vt 1212.65 512.369
vt 1212.65 576.655
vt 1187.03 592.438
vt 1147.65 634.131
vt 1120.4 684.595
vt 1107.15 740.392
vt 1108.78 797.718
vt 1125.2 852.666
vt 1155.28 901.494
f 311/966/28 310/967/28 312/968/28 313/969/28 314/970/28 315/971/28 316/972/28 317/973/28 318/974/28 319/975/28 320/976/28 321/977/28 322/978/28 323/979/28 324/980/28 325/981/28 326/982/28 327/983/28 328/984/28 329/985/28 330/986/28 

g Mesh5 Model

v 43.1143 0 -17.8279
vt -1697.41 701.887
v 42.7594 0 -16.1582
vt -1683.44 636.149
v 41.6169 0 -13.9159
vt -1638.46 547.871
v 39.933 0 -12.0458
vt -1572.17 474.243
v 37.8225 0 -10.6752
vt -1489.07 420.282
v 35.4291 0 -9.89751
vt -1394.85 389.666
v 35.2587 0 -5.52524
vt -1388.14 217.529
v 38.5026 0 -6.25704
vt -1515.85 246.34
v 41.7334 0 -7.95421
vt -1643.05 313.158
v 44.415 0 -10.4298
vt -1748.62 410.621
v 46.3644 0 -13.515
vt -1825.37 532.086
v 47.4489 0 -16.9997
vt -1868.07 669.278
v 47.5945 0 -20.6463
vt -1873.8 812.845
v 46.7914 0 -24.2063
vt -1842.18 953.004
v 45.0942 0 -27.4372
vt -1775.36 1080.2
v 42.6187 0 -30.1187
vt -1677.9 1185.78
v 39.5334 0 -32.0681
vt -1556.43 1262.52
v 36.0488 0 -33.1526
vt -1419.24 1305.22
v 34.3217 0 -33.2216
vt -1351.25 1307.94
v 34.3217 0 -30.4477
vt -1351.25 1198.73
v 34.4287 0 -28.9864
vt -1355.46 1141.2
v 36.8903 0 -28.4631
vt -1452.37 1120.6
v 39.1325 0 -27.3207
vt -1540.65 1075.62
v 41.0027 0 -25.6368
vt -1614.28 1009.32
v 42.3733 0 -23.5262
vt -1668.24 926.228
v 43.1509 0 -21.1328
vt -1698.86 832.001
v 41.8178 0 -21.1671
vt -1646.37 833.352
v 41.0767 0 -23.2143
vt -1617.19 913.949
v 39.831 0 -24.9999
vt -1568.15 984.248
v 38.1656 0 -26.4022
vt -1502.58 1039.46
v 36.194 0 -27.3257
vt -1424.96 1075.82
v 34.0505 0 -27.7075
vt -1340.57 1090.85
v 31.8813 0 -27.5215
vt -1255.17 1083.52
v 29.8341 0 -26.7804
vt -1174.57 1054.35
v 28.0485 0 -25.5347
vt -1104.27 1005.3
v 26.6462 0 -23.8693
vt -1049.06 939.737
v 25.7227 0 -21.8977
vt -1012.7 862.114
v 25.3409 0 -19.7543
vt -997.674 777.727
v 25.4065 0 -18.989
vt -1000.26 747.599
v 24.122 0 -18.989
vt -949.684 747.599
v 24.0621 0 -20.1325
vt -947.325 792.616
v 24.5853 0 -22.594
vt -967.925 889.528
v 25.7278 0 -24.8363
vt -1012.9 977.806
v 27.4117 0 -26.7064
vt -1079.2 1051.43
v 29.5222 0 -28.077
vt -1162.29 1105.39
v 31.9156 0 -28.8547
vt -1256.52 1136.01
v 33.1043 0 -28.917
vt -1303.32 1138.46
v 33.1043 0 -33.2702
vt -1303.32 1309.85
v 32.4022 0 -33.2983
vt -1275.68 1310.96
v 28.8421 0 -32.4951
vt -1135.52 1279.34
v 25.6113 0 -30.798
vt -1008.32 1212.52
v 22.9297 0 -28.3224
vt -902.745 1115.06
v 20.9803 0 -25.2372
vt -825.996 993.59
v 19.8958 0 -21.7525
vt -783.3 856.399
v 19.7502 0 -18.1059
vt -777.565 712.832
v 20.5533 0 -14.5459
vt -809.185 572.672
v 22.2505 0 -11.315
vt -876.003 445.473
v 24.726 0 -8.63348
vt -973.465 339.901
v 27.8112 0 -6.68405
vt -1094.93 263.151
v 31.2959 0 -5.59955
vt -1232.12 220.455
v 31.8955 0 -5.57561
vt -1255.73 219.512
v 31.8955 0 -8.44922
vt -1255.73 332.647
v 32.5775 0 -8.29002
vt -1282.58 326.379
v 33.1567 0 -8.30883
vt -1305.38 327.119
v 33.1567 0 -4.29376
vt -1305.38 169.046
v 29.7512 0 -4.7421
vt -1171.31 186.697
v 26.0972 0 -6.25561
vt -1027.45 246.284
v 22.9595 0 -8.66327
vt -903.918 341.073
v 20.5519 0 -11.801
vt -809.129 464.606
v 19.0384 0 -15.4549
vt -749.542 608.462
v 18.5221 0 -19.3761
vt -729.217 762.838
v 19.0384 0 -23.2973
vt -749.542 917.215
v 20.5519 0 -26.9512
vt -809.129 1061.07
v 22.9595 0 -30.0889
vt -903.918 1184.6
v 26.0972 0 -32.4966
vt -1027.45 1279.39
v 29.7512 0 -34.0101
vt -1171.31 1338.98
v 33.6723 0 -34.5263
vt -1325.68 1359.3
v 37.5935 0 -34.0101
vt -1480.06 1338.98
v 41.2475 0 -32.4966
vt -1623.92 1279.39
v 44.3852 0 -30.0889
vt -1747.45 1184.6
v 46.7928 0 -26.9512
vt -1842.24 1061.07
v 48.3063 0 -23.2973
vt -1901.82 917.215
v 48.8226 0 -19.3761
vt -1922.15 762.838
v 48.3063 0 -15.4549
vt -1901.82 608.462
v 46.7928 0 -11.801
vt -1842.24 464.606
v 44.3852 0 -8.66327
vt -1747.45 341.073
v 41.2475 0 -6.25561
vt -1623.92 246.284
v 37.5935 0 -4.7421
vt -1480.06 186.697
v 34.188 0 -4.29376
vt -1345.98 169.046
v 34.188 0 -11.1213
vt -1345.98 437.847
v 35.4634 0 -11.2307
vt -1396.2 442.153
v 37.5105 0 -11.9718
vt -1476.79 471.33
v 39.2961 0 -13.2175
vt -1547.09 520.373
v 40.6985 0 -14.8829
vt -1602.3 585.94
v 41.622 0 -16.8545
vt -1638.66 663.562
v 41.7954 0 -17.8279
vt -1645.49 701.887
f 331/987/1 332/988/1 333/989/1 334/990/1 335/991/1 336/992/1 337/993/1 338/994/1 339/995/1 340/996/1 341/997/1 342/998/1 343/999/1 344/1000/1 345/1001/1 346/1002/1 347/1003/1 348/1004/1 349/1005/1 350/1006/1 351/1007/1 352/1008/1 353/1009/1 354/1010/1 355/1011/1 356/1012/1 357/1013/1 358/1014/1 359/1015/1 360/1016/1 361/1017/1 362/1018/1 363/1019/1 364/1020/1 365/1021/1 366/1022/1 367/1023/1 368/1024/1 369/1025/1 370/1026/1 371/1027/1 372/1028/1 373/1029/1 374/1030/1 375/1031/1 376/1032/1 377/1033/1 378/1034/1 379/1035/1 380/1036/1 381/1037/1 382/1038/1 383/1039/1 384/1040/1 385/1041/1 386/1042/1 387/1043/1 388/1044/1 389/1045/1 390/1046/1 391/1047/1 392/1048/1 393/1049/1 394/1050/1 395/1051/1 396/1052/1 397/1053/1 398/1054/1 399/1055/1 400/1056/1 401/1057/1 402/1058/1 403/1059/1 404/1060/1 405/1061/1 406/1062/1 407/1063/1 408/1064/1 409/1065/1 410/1066/1 411/1067/1 412/1068/1 413/1069/1 414/1070/1 415/1071/1 416/1072/1 417/1073/1 418/1074/1 419/1075/1 420/1076/1 421/1077/1 422/1078/1 423/1079/1 424/1080/1 425/1081/1 426/1082/1 

vt 972.257 0
vn 0.942641 0 0.333809
vt 1039.46 0
vn 0.978147 0 0.207914
v 43.1143 12.74 -17.8279
vt 1039.46 501.575
v 42.7594 12.74 -16.1582
vt 972.257 501.575
f 332/1083/171 331/1084/172 427/1085/172 428/1086/171 

vt -1697.41 0
vt -1645.49 0
v 41.7954 12.74 -17.8279
vt -1645.49 501.575
vt -1697.41 501.575
f 331/1087/33 426/1088/33 429/1089/33 427/1090/33 

vt -979.545 0
vn -0.984506 0 -0.175348
vt -940.618 0
vn -0.953196 0 -0.302352
v 41.622 12.74 -16.8545
vt -940.618 501.575
vt -979.545 501.575
f 426/1091/173 425/1092/174 430/1093/174 429/1094/173 

vt -1296 0
vt -1210.28 0
vn -0.842462 0 -0.538755
v 40.6985 12.74 -14.8829
vt -1210.28 501.575
vt -1296 501.575
f 425/1095/174 424/1096/175 431/1097/175 430/1098/174 

vt -1480.26 0
vt -1394.55 0
vn -0.674316 0 -0.738443
v 39.2961 12.74 -13.2175
vt -1394.55 501.575
vt -1480.26 501.575
f 424/1099/175 423/1100/176 432/1101/176 431/1102/175 

vt -1566.57 0
vt -1480.86 0
vn -0.460216 0 -0.887807
v 37.5105 12.74 -11.9718
vt -1480.86 501.575
vt -1566.57 501.575
f 423/1103/176 422/1104/177 433/1105/177 432/1106/176 

vt -1549.04 0
vt -1463.33 0
vn -0.214753 0 -0.976668
v 35.4634 12.74 -11.2307
vt -1463.33 501.575
vt -1549.04 501.575
f 422/1107/177 421/1108/178 434/1109/178 433/1110/177 

vt -1428.87 0
vt -1378.47 0
vn -0.0854355 0 -0.996344
v 34.188 12.74 -11.1213
vt -1378.47 501.575
vt -1428.87 501.575
f 421/1111/178 420/1112/179 435/1113/179 434/1114/178 

vt -437.847 0
vt -169.046 0
v 34.188 12.74 -4.29376
vt -169.046 501.575
vt -437.847 501.575
f 420/1115/4 419/1116/4 436/1117/4 435/1118/4 

vt 1356.53 0
vn 0.130526 0 0.991445
vt 1491.77 0
vn 0.258819 0 0.965926
v 37.5935 12.74 -4.7421
vt 1491.77 501.575
vt 1356.53 501.575
f 419/1119/180 418/1120/181 437/1121/181 436/1122/180 

vt 1438.84 0
vt 1594.55 0
vn 0.5 0 0.866025
v 41.2475 12.74 -6.25561
vt 1594.55 501.575
vt 1438.84 501.575
f 418/1123/181 417/1124/182 438/1125/182 437/1126/181 

vt 1438.27 0
vt 1593.98 0
vn 0.707107 0 0.707107
v 44.3852 12.74 -8.66327
vt 1593.98 501.575
vt 1438.27 501.575
f 417/1127/182 416/1128/183 439/1129/183 438/1130/182 

vt 1334.37 0
vt 1490.08 0
vn 0.866025 0 0.5
v 46.7928 12.74 -11.801
vt 1490.08 501.575
vt 1334.37 501.575
f 416/1131/183 415/1132/184 440/1133/184 439/1134/183 

vt 1134.23 0
vt 1289.94 0
vn 0.965926 0 0.258819
v 48.3063 12.74 -15.4549
vt 1289.94 501.575
vt 1134.23 501.575
f 415/1135/184 414/1136/185 441/1137/185 440/1138/184 

vt 851.494 0
vt 1007.2 0
vn 1 0 -4.89914e-16
v 48.8226 12.74 -19.3761
vt 1007.2 501.575
vt 851.494 501.575
f 414/1139/185 413/1140/186 442/1141/186 441/1142/185 

vt 505.421 0
vt 661.13 0
vn 0.965926 0 -0.258819
v 48.3063 12.74 -23.2973
vt 661.13 501.575
vt 505.421 501.575
f 413/1143/186 412/1144/187 443/1145/187 442/1146/186 

vt 119.599 0
vt 275.308 0
vn 0.866025 0 -0.5
v 46.7928 12.74 -26.9512
vt 275.308 501.575
vt 119.599 501.575
f 412/1147/187 411/1148/188 444/1149/188 443/1150/187 

vt -279.679 0
vt -123.97 0
vn 0.707107 0 -0.707107
v 44.3852 12.74 -30.0889
vt -123.97 501.575
vt -279.679 501.575
f 411/1151/188 410/1152/189 445/1153/189 444/1154/188 

vt -665.203 0
vt -509.494 0
vn 0.5 0 -0.866025
v 41.2475 12.74 -32.4966
vt -509.494 501.575
vt -665.203 501.575
f 410/1155/189 409/1156/190 446/1157/190 445/1158/189 

vt -1010.7 0
vt -854.991 0
vn 0.258819 0 -0.965926
v 37.5935 12.74 -34.0101
vt -854.991 501.575
vt -1010.7 501.575
f 409/1159/190 408/1160/191 447/1161/191 446/1162/190 

vt -1292.63 0
vt -1136.92 0
vn 2.79951e-16 0 -1
v 33.6723 12.74 -34.5263
vt -1136.92 501.575
vt -1292.63 501.575
f 408/1163/191 407/1164/192 448/1165/192 447/1166/191 

vt -1491.77 0
vt -1336.06 0
vn -0.258819 0 -0.965926
v 29.7512 12.74 -34.0101
vt -1336.06 501.575
vt -1491.77 501.575
f 407/1167/192 406/1168/193 449/1169/193 448/1170/192 

vt -1594.55 0
vt -1438.84 0
vn -0.5 0 -0.866025
v 26.0972 12.74 -32.4966
vt -1438.84 501.575
vt -1594.55 501.575
f 406/1171/193 405/1172/194 450/1173/194 449/1174/193 

vt -1593.98 0
vt -1438.27 0
vn -0.707107 0 -0.707107
v 22.9595 12.74 -30.0889
vt -1438.27 501.575
vt -1593.98 501.575
f 405/1175/194 404/1176/195 451/1177/195 450/1178/194 

vt -1490.08 0
vt -1334.37 0
vn -0.866025 0 -0.5
v 20.5519 12.74 -26.9512
vt -1334.37 501.575
vt -1490.08 501.575
f 404/1179/195 403/1180/196 452/1181/196 451/1182/195 

vt -1289.94 0
vt -1134.23 0
vn -0.965926 0 -0.258819
v 19.0384 12.74 -23.2973
vt -1134.23 501.575
vt -1289.94 501.575
f 403/1183/196 402/1184/197 453/1185/197 452/1186/196 

vt -1007.2 0
vt -851.494 0
vn -1 0 2.79951e-16
v 18.5221 12.74 -19.3761
vt -851.494 501.575
vt -1007.2 501.575
f 402/1187/197 401/1188/198 454/1189/198 453/1190/197 

vt -661.13 0
vt -505.421 0
vn -0.965926 0 0.258819
v 19.0384 12.74 -15.4549
vt -505.421 501.575
vt -661.13 501.575
f 401/1191/198 400/1192/199 455/1193/199 454/1194/198 

vt -275.308 0
vt -119.599 0
vn -0.866025 0 0.5
v 20.5519 12.74 -11.801
vt -119.599 501.575
vt -275.308 501.575
f 400/1195/199 399/1196/200 456/1197/200 455/1198/199 

vt 123.97 0
vt 279.679 0
vn -0.707107 0 0.707107
v 22.9595 12.74 -8.66327
vt 279.679 501.575
vt 123.97 501.575
f 399/1199/200 398/1200/201 457/1201/201 456/1202/200 

vt 509.494 0
vt 665.203 0
vn -0.5 0 0.866025
v 26.0972 12.74 -6.25561
vt 665.203 501.575
vt 509.494 501.575
f 398/1203/201 397/1204/202 458/1205/202 457/1206/201 

vt 854.991 0
vt 1010.7 0
vn -0.258819 0 0.965926
v 29.7512 12.74 -4.7421
vt 1010.7 501.575
vt 854.991 501.575
f 397/1207/202 396/1208/203 459/1209/203 458/1210/202 

vt 1136.92 0
vt 1272.15 0
vn -0.130526 0 0.991445
v 33.1567 12.74 -4.29376
vt 1272.15 501.575
vt 1136.92 501.575
f 396/1211/203 395/1212/204 460/1213/204 459/1214/203 

vt 169.046 0
vt 327.119 0
v 33.1567 12.74 -8.30883
vt 327.119 501.575
vt 169.046 501.575
f 395/1215/53 394/1216/53 461/1217/53 460/1218/53 

vt -1315.31 0
vn -0.0324525 0 -0.999473
vt -1292.49 0
vn 0.0982826 0 -0.995159
v 32.5775 12.74 -8.29002
vt -1292.49 501.575
vt -1315.31 501.575
f 394/1219/205 393/1220/206 462/1221/206 461/1222/205 

vt -1174.8 0
vt -1147.23 0
v 31.8955 12.74 -8.44922
vt -1147.23 501.575
vt -1174.8 501.575
f 393/1223/206 392/1224/139 463/1225/139 462/1226/206 

vt -332.647 0
vt -219.512 0
v 31.8955 12.74 -5.57561
vt -219.512 501.575
vt -332.647 501.575
f 392/1227/4 391/1228/4 464/1229/4 463/1230/4 

vt -1245.97 0
vn 0.0399078 0 -0.999203
vt -1222.34 0
vn 0.169989 0 -0.985446
v 31.2959 12.74 -5.59955
vt -1222.34 501.575
vt -1245.97 501.575
f 391/1231/207 390/1232/208 465/1233/208 464/1234/207 

vt -1110.95 0
vt -967.272 0
vn 0.419249 0 -0.907872
v 27.8112 12.74 -6.68405
vt -967.272 501.575
vt -1110.95 501.575
f 390/1235/208 389/1236/209 466/1237/209 465/1238/208 

vt -785.069 0
vt -641.387 0
vn 0.639937 0 -0.768427
v 24.726 12.74 -8.63348
vt -641.387 501.575
vt -785.069 501.575
f 389/1239/209 388/1240/210 467/1241/210 466/1242/209 

vt -410.579 0
vt -266.897 0
vn 0.817016 0 -0.576616
v 22.2505 12.74 -11.315
vt -266.897 501.575
vt -410.579 501.575
f 388/1243/210 387/1244/211 468/1245/211 467/1246/210 

vt -13.0045 0
vt 130.677 0
vn 0.938416 0 -0.345509
v 20.5533 12.74 -14.5459
vt 130.677 501.575
vt -13.0045 501.575
f 387/1247/211 386/1248/212 469/1249/212 468/1250/211 

vt 380.56 0
vt 524.242 0
vn 0.995864 0 -0.0908559
v 19.7502 12.74 -18.1059
vt 524.242 501.575
vt 380.56 501.575
f 386/1251/212 385/1252/213 470/1253/213 469/1254/212 

vt 743.295 0
vt 886.976 0
vn 0.985446 0 0.169989
v 19.8958 12.74 -21.7525
vt 886.976 501.575
vt 743.295 501.575
f 385/1255/213 384/1256/214 471/1257/214 470/1258/213 

vt 1050.48 0
vt 1194.16 0
vn 0.907872 0 0.419249
v 20.9803 12.74 -25.2372
vt 1194.16 501.575
vt 1050.48 501.575
f 384/1259/214 383/1260/215 472/1261/215 471/1262/214 

vt 1281.18 0
vt 1424.86 0
vn 0.768427 0 0.639937
v 22.9297 12.74 -28.3224
vt 1424.86 501.575
vt 1281.18 501.575
f 383/1263/215 382/1264/216 473/1265/216 472/1266/215 

vt 1419.67 0
vt 1563.35 0
vn 0.576616 0 0.817016
v 25.6113 12.74 -30.798
vt 1563.35 501.575
vt 1419.67 501.575
f 382/1267/216 381/1268/217 474/1269/217 473/1270/216 

vt 1456.52 0
vt 1600.2 0
vn 0.345509 0 0.938416
v 28.8421 12.74 -32.4951
vt 1600.2 501.575
vt 1456.52 501.575
f 381/1271/217 380/1272/218 475/1273/218 474/1274/217 

vt 1389.22 0
vt 1532.9 0
vn 0.0908559 0 0.995864
v 32.4022 12.74 -33.2983
vt 1532.9 501.575
vt 1389.22 501.575
f 380/1275/218 379/1276/219 476/1277/219 475/1278/218 

vt 1222.34 0
vt 1250.01 0
vn -0.0399078 0 0.999203
v 33.1043 12.74 -33.2702
vt 1250.01 501.575
vt 1222.34 501.575
f 379/1279/219 378/1280/220 477/1281/220 476/1282/219 

vt -1309.85 0
vt -1138.46 0
v 33.1043 12.74 -28.917
vt -1138.46 501.575
vt -1309.85 501.575
f 378/1283/4 377/1284/4 478/1285/4 477/1286/4 

vt -1361.11 0
vn -0.052334 0 -0.99863
vt -1314.25 0
vn -0.182234 0 -0.983255
v 31.9156 12.74 -28.8547
vt -1314.25 501.575
vt -1361.11 501.575
f 377/1287/221 376/1288/222 479/1289/222 478/1290/221 

vt -1546.07 0
vt -1446.99 0
vn -0.430509 0 -0.902586
v 29.5222 12.74 -28.077
vt -1446.99 501.575
vt -1546.07 501.575
f 376/1291/222 375/1292/223 480/1293/223 479/1294/222 

vt -1576.82 0
vt -1477.74 0
vn -0.649447 0 -0.760407
v 27.4117 12.74 -26.7064
vt -1477.74 501.575
vt -1576.82 501.575
f 375/1295/223 374/1296/224 481/1297/224 480/1298/223 

vt -1503.49 0
vt -1404.42 0
vn -0.824125 0 -0.566408
v 25.7278 12.74 -24.8363
vt -1404.42 501.575
vt -1503.49 501.575
f 374/1299/224 373/1300/225 482/1301/225 481/1302/224 

vt -1331.08 0
vt -1232 0
vn -0.942641 0 -0.333809
v 24.5853 12.74 -22.594
vt -1232 501.575
vt -1331.08 501.575
f 373/1303/225 372/1304/226 483/1305/226 482/1306/225 

vt -1071.33 0
vt -972.257 0
vn -0.996917 0 -0.0784611
v 24.0621 12.74 -20.1325
vt -972.257 501.575
vt -1071.33 501.575
f 372/1307/226 371/1308/227 484/1309/227 483/1310/226 

vt -741.953 0
vt -696.873 0
v 24.122 12.74 -18.989
vt -696.873 501.575
vt -741.953 501.575
f 371/1311/227 370/1312/88 485/1313/88 484/1314/227 

vt 949.684 0
vt 1000.26 0
v 25.4065 12.74 -18.989
vt 1000.26 501.575
vt 949.684 501.575
f 370/1315/31 369/1316/31 486/1317/31 485/1318/31 

vt 659.408 0
vt 689.647 0
vn 0.998971 0 0.0453444
v 25.3409 12.74 -19.7543
vt 689.647 501.575
vt 659.408 501.575
f 369/1319/87 368/1320/228 487/1321/228 486/1322/87 

vt 940.618 0
vt 1026.33 0
vn 0.953196 0 0.302352
v 25.7227 12.74 -21.8977
vt 1026.33 501.575
vt 940.618 501.575
f 368/1323/228 367/1324/229 488/1325/229 487/1326/228 

vt 1210.28 0
vt 1296 0
vn 0.842462 0 0.538755
v 26.6462 12.74 -23.8693
vt 1296 501.575
vt 1210.28 501.575
f 367/1327/229 366/1328/230 489/1329/230 488/1330/229 

vt 1394.55 0
vt 1480.26 0
vn 0.674316 0 0.738443
v 28.0485 12.74 -25.5347
vt 1480.26 501.575
vt 1394.55 501.575
f 366/1331/230 365/1332/231 490/1333/231 489/1334/230 

vt 1480.86 0
vt 1566.57 0
vn 0.460216 0 0.887807
v 29.8341 12.74 -26.7804
vt 1566.57 501.575
vt 1480.86 501.575
f 365/1335/231 364/1336/232 491/1337/232 490/1338/231 

vt 1463.33 0
vt 1549.04 0
vn 0.214753 0 0.976668
v 31.8813 12.74 -27.5215
vt 1549.04 501.575
vt 1463.33 501.575
f 364/1339/232 363/1340/233 492/1341/233 491/1342/232 

vt 1343.15 0
vt 1428.87 0
vn -0.0453444 0 0.998971
v 34.0505 12.74 -27.7075
vt 1428.87 501.575
vt 1343.15 501.575
f 363/1343/233 362/1344/234 493/1345/234 492/1346/233 

vt 1128.52 0
vt 1214.24 0
vn -0.302352 0 0.953196
v 36.194 12.74 -27.3257
vt 1214.24 501.575
vt 1128.52 501.575
f 362/1347/234 361/1348/235 494/1349/235 493/1350/234 

vt 834.067 0
vt 919.783 0
vn -0.538755 0 0.842462
v 38.1656 12.74 -26.4022
vt 919.783 501.575
vt 834.067 501.575
f 361/1351/235 360/1352/236 495/1353/236 494/1354/235 

vt 479.85 0
vt 565.566 0
vn -0.738443 0 0.674316
v 39.831 12.74 -24.9999
vt 565.566 501.575
vt 479.85 501.575
f 360/1355/236 359/1356/237 496/1357/237 495/1358/236 

vt 90.0113 0
vt 175.727 0
vn -0.887807 0 0.460216
v 41.0767 12.74 -23.2143
vt 175.727 501.575
vt 90.0113 501.575
f 359/1359/237 358/1360/238 497/1361/238 496/1362/237 

vt -308.882 0
vt -223.167 0
vn -0.940282 0 0.340397
v 41.8178 12.74 -21.1671
vt -223.167 501.575
vt -308.882 501.575
f 358/1363/238 357/1364/239 498/1365/239 497/1366/238 

vt 1624.38 0
vn -0.0257292 0 0.999669
vt 1676.89 0
v 43.1509 12.74 -21.1328
vt 1676.89 501.575
vt 1624.38 501.575
f 357/1367/240 356/1368/240 499/1369/240 498/1370/240 

vt 266.308 0
vn 0.951057 0 -0.309015
vt 365.385 0
vn 0.902586 0 -0.430509
v 42.3733 12.74 -23.5262
vt 365.385 501.575
vt 266.308 501.575
f 356/1371/241 355/1372/242 500/1373/242 499/1374/241 

vt -131.784 0
vt -32.7073 0
vn 0.760407 0 -0.649447
v 41.0027 12.74 -25.6368
vt -32.7073 501.575
vt -131.784 501.575
f 355/1375/242 354/1376/243 501/1377/243 500/1378/242 

vt -524.271 0
vt -425.195 0
vn 0.566408 0 -0.824125
v 39.1325 12.74 -27.3207
vt -425.195 501.575
vt -524.271 501.575
f 354/1379/243 353/1380/244 502/1381/244 501/1382/243 

vt -884.406 0
vt -785.33 0
vn 0.333809 0 -0.942641
v 36.8903 12.74 -28.4631
vt -785.33 501.575
vt -884.406 501.575
f 353/1383/244 352/1384/245 503/1385/245 502/1386/244 

vt -1187.65 0
vt -1088.57 0
vn 0.207914 0 -0.978147
v 34.4287 12.74 -28.9864
vt -1088.57 501.575
vt -1187.65 501.575
f 352/1387/245 351/1388/246 504/1389/246 503/1390/245 

vt 1039.12 0
vn 0.997328 0 -0.0730581
vt 1096.81 0
v 34.3217 12.74 -30.4477
vt 1096.81 501.575
vt 1039.12 501.575
f 351/1391/247 350/1392/247 505/1393/247 504/1394/247 

vt 1198.73 0
vt 1307.94 0
v 34.3217 12.74 -33.2216
vt 1307.94 501.575
vt 1198.73 501.575
f 350/1395/53 349/1396/53 506/1397/53 505/1398/53 

vt 1297.97 0
vt 1366.02 0
vn -0.169989 0 0.985446
v 36.0488 12.74 -33.1526
vt 1366.02 501.575
vt 1297.97 501.575
f 349/1399/220 348/1400/248 507/1401/248 506/1402/220 

vt 967.272 0
vt 1110.95 0
vn -0.419249 0 0.907872
v 39.5334 12.74 -32.0681
vt 1110.95 501.575
vt 967.272 501.575
f 348/1403/248 347/1404/249 508/1405/249 507/1406/248 

vt 641.387 0
vt 785.069 0
vn -0.639937 0 0.768427
v 42.6187 12.74 -30.1187
vt 785.069 501.575
vt 641.387 501.575
f 347/1407/249 346/1408/250 509/1409/250 508/1410/249 

vt 266.897 0
vt 410.579 0
vn -0.817016 0 0.576616
v 45.0942 12.74 -27.4372
vt 410.579 501.575
vt 266.897 501.575
f 346/1411/250 345/1412/251 510/1413/251 509/1414/250 

vt -130.677 0
vt 13.0045 0
vn -0.938416 0 0.345509
v 46.7914 12.74 -24.2063
vt 13.0045 501.575
vt -130.677 501.575
f 345/1415/251 344/1416/252 511/1417/252 510/1418/251 

vt -524.242 0
vt -380.56 0
vn -0.995864 0 0.0908559
v 47.5945 12.74 -20.6463
vt -380.56 501.575
vt -524.242 501.575
f 344/1419/252 343/1420/253 512/1421/253 511/1422/252 

vt -886.976 0
vt -743.295 0
vn -0.985446 0 -0.169989
v 47.4489 12.74 -16.9997
vt -743.295 501.575
vt -886.976 501.575
f 343/1423/253 342/1424/254 513/1425/254 512/1426/253 

vt -1194.16 0
vt -1050.48 0
vn -0.907872 0 -0.419249
v 46.3644 12.74 -13.515
vt -1050.48 501.575
vt -1194.16 501.575
f 342/1427/254 341/1428/255 514/1429/255 513/1430/254 

vt -1424.86 0
vt -1281.18 0
vn -0.768427 0 -0.639937
v 44.415 12.74 -10.4298
vt -1281.18 501.575
vt -1424.86 501.575
f 341/1431/255 340/1432/256 515/1433/256 514/1434/255 

vt -1563.35 0
vt -1419.67 0
vn -0.576616 0 -0.817016
v 41.7334 12.74 -7.95421
vt -1419.67 501.575
vt -1563.35 501.575
f 340/1435/256 339/1436/257 516/1437/257 515/1438/256 

vt -1600.2 0
vt -1456.52 0
vn -0.345509 0 -0.938416
v 38.5026 12.74 -6.25704
vt -1456.52 501.575
vt -1600.2 501.575
f 339/1439/257 338/1440/258 517/1441/258 516/1442/257 

vt -1532.9 0
vt -1401.98 0
vn -0.220065 0 -0.975485
v 35.2587 12.74 -5.52524
vt -1401.98 501.575
vt -1532.9 501.575
f 338/1443/258 337/1444/259 518/1445/259 517/1446/258 

vt 271.423 0
vn 0.999241 0 0.0389439
vt 443.691 0
v 35.4291 12.74 -9.89751
vt 443.691 501.575
vt 271.423 501.575
f 337/1447/260 336/1448/260 519/1449/260 518/1450/260 

vt 1446.99 0
vn 0.309015 0 0.951057
vt 1546.07 0
vn 0.430509 0 0.902586
v 37.8225 12.74 -10.6752
vt 1546.07 501.575
vt 1446.99 501.575
f 336/1451/261 335/1452/262 520/1453/262 519/1454/261 

vt 1477.74 0
vt 1576.82 0
vn 0.649447 0 0.760407
v 39.933 12.74 -12.0458
vt 1576.82 501.575
vt 1477.74 501.575
f 335/1455/262 334/1456/263 521/1457/263 520/1458/262 

vt 1404.42 0
vt 1503.49 0
vn 0.824125 0 0.566408
v 41.6169 12.74 -13.9159
vt 1503.49 501.575
vt 1404.42 501.575
f 334/1459/263 333/1460/264 522/1461/264 521/1462/263 

vt 1232 0
vt 1331.08 0
vt 1331.08 501.575
vt 1232 501.575
f 333/1463/264 332/1464/171 428/1465/171 522/1466/264 

vt 1683.44 636.149
vt 1697.41 701.887
vt 1645.49 701.887
vt 1638.66 663.562
vt 1602.3 585.94
vt 1547.09 520.373
vt 1476.79 471.33
vt 1396.2 442.153
vt 1345.98 437.847
vt 1345.98 169.046
vt 1480.06 186.697
vt 1623.92 246.284
vt 1747.45 341.073
vt 1842.24 464.606
vt 1901.82 608.462
vt 1922.15 762.838
vt 1901.82 917.215
vt 1842.24 1061.07
vt 1747.45 1184.6
vt 1623.92 1279.39
vt 1480.06 1338.98
vt 1325.68 1359.3
vt 1171.31 1338.98
vt 1027.45 1279.39
vt 903.918 1184.6
vt 809.129 1061.07
vt 749.542 917.215
vt 729.217 762.838
vt 749.542 608.462
vt 809.129 464.606
vt 903.918 341.073
vt 1027.45 246.284
vt 1171.31 186.697
vt 1305.38 169.046
vt 1305.38 327.119
vt 1282.58 326.379
vt 1255.73 332.647
vt 1255.73 219.512
vt 1232.12 220.455
vt 1094.93 263.151
vt 973.465 339.901
vt 876.003 445.473
vt 809.185 572.672
vt 777.565 712.832
vt 783.3 856.399
vt 825.996 993.59
vt 902.745 1115.06
vt 1008.32 1212.52
vt 1135.52 1279.34
vt 1275.68 1310.96
vt 1303.32 1309.85
vt 1303.32 1138.46
vt 1256.52 1136.01
vt 1162.29 1105.39
vt 1079.2 1051.43
vt 1012.9 977.806
vt 967.925 889.528
vt 947.325 792.616
vt 949.684 747.599
vt 1000.26 747.599
vt 997.674 777.727
vt 1012.7 862.114
vt 1049.06 939.737
vt 1104.27 1005.3
vt 1174.57 1054.35
vt 1255.17 1083.52
vt 1340.57 1090.85
vt 1424.96 1075.82
vt 1502.58 1039.46
vt 1568.15 984.248
vt 1617.19 913.949
vt 1646.37 833.352
vt 1698.86 832.001
vt 1668.24 926.228
vt 1614.28 1009.32
vt 1540.65 1075.62
vt 1452.37 1120.6
vt 1355.46 1141.2
vt 1351.25 1198.73
vt 1351.25 1307.94
vt 1419.24 1305.22
vt 1556.43 1262.52
vt 1677.9 1185.78
vt 1775.36 1080.2
vt 1842.18 953.004
vt 1873.8 812.845
vt 1868.07 669.278
vt 1825.37 532.086
vt 1748.62 410.621
vt 1643.05 313.158
vt 1515.85 246.34
vt 1388.14 217.529
vt 1394.85 389.666
vt 1489.07 420.282
vt 1572.17 474.243
vt 1638.46 547.871
f 428/1467/28 427/1468/28 429/1469/28 430/1470/28 431/1471/28 432/1472/28 433/1473/28 434/1474/28 435/1475/28 436/1476/28 437/1477/28 438/1478/28 439/1479/28 440/1480/28 441/1481/28 442/1482/28 443/1483/28 444/1484/28 445/1485/28 446/1486/28 447/1487/28 448/1488/28 449/1489/28 450/1490/28 451/1491/28 452/1492/28 453/1493/28 454/1494/28 455/1495/28 456/1496/28 457/1497/28 458/1498/28 459/1499/28 460/1500/28 461/1501/28 462/1502/28 463/1503/28 464/1504/28 465/1505/28 466/1506/28 467/1507/28 468/1508/28 469/1509/28 470/1510/28 471/1511/28 472/1512/28 473/1513/28 474/1514/28 475/1515/28 476/1516/28 477/1517/28 478/1518/28 479/1519/28 480/1520/28 481/1521/28 482/1522/28 483/1523/28 484/1524/28 485/1525/28 486/1526/28 487/1527/28 488/1528/28 489/1529/28 490/1530/28 491/1531/28 492/1532/28 493/1533/28 494/1534/28 495/1535/28 496/1536/28 497/1537/28 498/1538/28 499/1539/28 500/1540/28 501/1541/28 502/1542/28 503/1543/28 504/1544/28 505/1545/28 506/1546/28 507/1547/28 508/1548/28 509/1549/28 510/1550/28 511/1551/28 512/1552/28 513/1553/28 514/1554/28 515/1555/28 516/1556/28 517/1557/28 518/1558/28 519/1559/28 520/1560/28 521/1561/28 522/1562/28 

